<?xml version="1.0" standalone="no"?>
<!DOCTYPE svg PUBLIC "-//W3C//DTD SVG 20010904//EN"
 "http://www.w3.org/TR/2001/REC-SVG-20010904/DTD/svg10.dtd">
<svg version="1.0" xmlns="http://www.w3.org/2000/svg"
 width="256.000000pt" height="256.000000pt" viewBox="0 0 256.000000 256.000000"
 preserveAspectRatio="xMidYMid meet">

<g transform="translate(0.000000,256.000000) scale(0.100000,-0.100000)"
fill="#000000" stroke="none">
<path d="M0 1282 l0 -1278 908 -2 c499 0 927 2 952 6 43 7 45 8 42 39 -3 24 3
37 22 54 14 12 30 37 37 56 9 29 15 33 44 33 23 0 39 7 52 23 10 12 31 24 47
25 16 2 39 10 51 18 12 8 25 11 28 7 4 -3 7 15 7 40 0 34 4 47 14 47 8 0 17 8
21 18 6 14 9 12 23 -13 16 -28 17 -29 20 -8 2 15 10 23 23 23 19 0 23 8 19 47
-1 15 5 22 22 25 l23 3 -22 20 c-26 22 -30 37 -8 29 10 -4 15 0 15 11 0 12 5
15 16 11 14 -5 16 -1 10 25 -6 32 -30 58 -53 59 -16 0 -39 45 -48 92 -4 21
-13 42 -21 49 -8 6 -14 22 -14 36 0 13 -7 31 -15 39 -14 15 -20 11 -15 -11 1
-5 -10 1 -23 14 -14 12 -30 20 -36 16 -6 -3 -11 -1 -11 6 0 10 -3 10 -12 0
-11 -10 -8 -17 13 -35 14 -12 28 -29 31 -37 5 -13 -2 -12 -35 5 -23 11 -44 23
-47 26 -3 4 -16 10 -30 13 -14 3 -52 13 -85 22 -35 10 -61 13 -63 7 -2 -6 -18
-6 -45 0 -32 7 -55 5 -97 -8 -30 -9 -59 -20 -65 -24 -15 -11 -58 8 -52 23 3 9
-13 17 -54 26 -32 8 -56 18 -53 23 3 5 -11 8 -33 6 -35 -3 -38 -1 -37 22 2 53
23 91 60 109 16 8 43 21 59 29 30 15 55 39 55 53 0 4 -25 25 -54 46 -30 21
-57 46 -60 56 -3 14 -10 16 -33 11 -15 -4 -30 -11 -32 -16 -2 -5 -14 -21 -26
-36 -21 -25 -29 -27 -92 -26 -78 2 -145 23 -180 58 -28 28 -72 40 -80 20 -2
-7 -26 -16 -51 -20 -50 -7 -62 -17 -62 -50 0 -19 48 -64 69 -64 15 0 51 -50
51 -71 0 -11 7 -19 16 -19 10 0 14 -7 12 -22 -3 -20 -10 -23 -58 -26 -33 -1
-93 7 -150 22 -52 13 -99 20 -104 16 -5 -5 3 -12 18 -16 14 -3 26 -10 26 -15
0 -10 -133 1 -140 12 -11 17 -93 39 -129 34 -129 -16 -148 -15 -114 10 28 20
6 35 -42 28 -40 -5 -45 -4 -45 14 0 11 6 26 14 33 9 7 13 23 11 41 -2 16 0 27
5 24 4 -3 13 2 20 11 21 24 -2 37 -49 29 -40 -7 -41 -8 -41 -46 0 -22 -5 -39
-11 -39 -7 0 -22 -11 -35 -25 -12 -13 -40 -31 -62 -38 -38 -13 -39 -13 -75 25
-24 25 -31 38 -21 38 10 0 12 4 7 12 -4 7 -8 15 -9 18 0 3 -3 12 -7 20 -27 70
-37 231 -17 272 10 21 10 31 1 42 -7 8 -8 17 -3 20 6 3 13 22 16 41 5 22 13
35 23 35 8 0 13 6 10 13 -3 7 4 19 14 25 10 7 19 17 19 23 0 6 17 28 38 48 62
58 82 93 84 151 l2 51 19 -25 c11 -15 28 -26 42 -26 13 0 27 -4 30 -10 3 -5
14 -10 23 -10 13 0 13 2 -4 15 -14 11 -15 15 -4 14 8 -1 24 -1 34 0 18 1 18 3
-4 27 -20 20 -22 27 -11 34 11 6 9 9 -9 12 -12 1 -29 13 -37 24 -12 19 -12 22
7 27 15 4 32 -4 58 -29 20 -19 40 -34 44 -34 18 0 6 49 -18 75 -29 31 -28 34
9 37 18 2 27 8 27 20 0 10 -7 18 -15 18 -8 0 -15 -4 -15 -10 0 -14 -74 -12
-88 2 -7 7 -12 15 -12 18 0 12 47 28 104 35 51 7 56 9 50 27 -4 15 -3 18 6 13
10 -6 12 0 7 28 -6 38 2 47 21 24 8 -9 30 -12 73 -9 44 3 64 1 70 -9 4 -7 11
-10 16 -6 4 4 2 16 -4 26 -9 15 -7 22 10 40 19 19 20 23 7 31 -8 5 -10 10 -4
10 6 0 28 -11 48 -25 20 -14 41 -25 47 -25 5 0 22 11 37 25 15 14 32 25 39 25
6 0 14 6 16 13 3 6 6 3 6 -8 1 -16 3 -17 10 -6 7 10 13 12 23 5 19 -15 71 -16
80 -2 5 9 8 6 8 -9 0 -27 9 -29 36 -9 20 15 89 12 109 -4 7 -6 16 -5 23 2 8 8
9 5 5 -12 -6 -21 -4 -22 23 -15 16 4 53 9 82 10 40 3 52 1 52 -11 0 -8 7 -14
15 -14 8 0 15 5 15 11 0 6 18 9 46 6 40 -3 48 -8 59 -33 8 -16 14 -24 14 -18
1 11 78 40 95 35 4 -1 14 3 21 9 18 15 30 -22 16 -49 -17 -31 -13 -45 30 -110
39 -59 69 -78 69 -45 0 13 3 14 15 4 9 -8 13 -21 9 -36 -9 -35 5 -29 21 9 11
23 14 27 15 12 0 -11 -7 -31 -16 -43 -23 -33 -11 -38 32 -13 41 24 51 22 35
-8 -9 -17 -8 -22 10 -32 17 -9 24 -8 31 2 6 10 7 7 3 -8 -5 -19 -2 -23 14 -23
12 0 21 -4 21 -10 0 -5 8 -6 17 -3 14 6 13 1 -5 -22 -15 -19 -19 -31 -12 -35
6 -4 10 -13 8 -20 -2 -8 4 -15 12 -16 8 0 23 -2 33 -2 9 -1 17 -9 17 -17 0 -8
8 -15 18 -16 9 0 -34 -13 -97 -29 -63 -16 -122 -37 -131 -45 -10 -9 -21 -15
-26 -14 -23 4 -44 -2 -44 -14 0 -7 -15 -35 -34 -62 -20 -31 -40 -78 -50 -122
-19 -85 -19 -86 -6 -78 5 3 10 0 10 -8 0 -7 13 -26 29 -41 25 -24 30 -26 43
-12 15 15 51 12 74 -5 6 -5 56 -12 110 -15 111 -7 157 2 213 44 40 30 53 19
49 -43 -2 -35 0 -40 21 -43 13 -2 30 -10 38 -17 11 -11 10 -14 -5 -17 -24 -6
38 -38 74 -38 19 0 25 -4 20 -15 -4 -10 1 -15 15 -15 11 0 22 6 25 14 7 18 29
27 48 20 8 -3 20 -25 27 -50 7 -24 17 -44 21 -44 4 0 8 -9 8 -19 0 -11 10 -27
22 -35 19 -14 20 -16 5 -16 -10 0 -15 -5 -12 -10 4 -7 13 -7 26 0 15 9 19 7
19 -5 0 -8 5 -15 10 -15 6 0 10 92 10 256 l0 256 -24 19 c-23 18 -24 21 -12
67 7 26 18 58 25 69 7 14 11 89 11 216 0 193 0 195 -22 201 -13 3 -36 6 -51 6
-32 0 -87 26 -87 40 0 17 58 11 68 -6 6 -11 11 -13 16 -5 5 8 16 7 41 -3 l34
-14 0 89 0 89 -30 0 c-23 0 -30 -4 -25 -15 4 -11 -1 -14 -24 -12 -17 2 -33 6
-36 10 -7 7 62 27 94 27 22 0 22 1 22 145 l0 145 -25 0 c-25 0 -89 -36 -132
-74 -13 -11 -25 -17 -28 -14 -3 3 15 24 41 47 l47 41 -863 0 -862 0 16 -25
c25 -38 19 -44 -10 -7 l-25 32 -360 0 -359 0 0 -1278z m640 1178 c0 -5 -4 -10
-9 -10 -6 0 -13 5 -16 10 -3 6 1 10 9 10 9 0 16 -4 16 -10z m30 -81 c0 -14
-26 -11 -39 5 -9 11 -6 12 14 8 14 -2 25 -8 25 -13z m-70 -71 c0 -4 11 -8 24
-8 14 0 28 -5 31 -11 4 -6 17 -14 29 -19 14 -6 -1 -8 -46 -6 -38 1 -73 7 -80
14 -7 7 -24 12 -39 12 -15 0 -31 5 -34 10 -4 6 -3 10 2 9 20 -3 33 2 33 15 0
11 8 11 40 3 22 -6 40 -15 40 -19z m1885 22 c4 -6 -9 -10 -32 -9 -38 1 -38 1
-8 9 17 4 31 8 32 9 1 0 5 -3 8 -9z m-1771 -39 c3 -4 -6 -6 -19 -3 -14 2 -25
6 -25 8 0 8 39 4 44 -5z m-95 -66 c23 -5 31 -4 27 4 -10 16 9 14 23 -3 25 -29
-57 -27 -106 4 -17 10 -17 11 2 6 11 -2 35 -8 54 -11z m1779 -37 c9 -9 12 -9
12 0 0 7 16 12 40 12 46 0 51 -11 14 -30 -21 -12 -27 -12 -33 -1 -6 9 -11 10
-15 3 -8 -14 -33 -5 -40 14 -7 17 6 18 22 2z m-2084 -293 c-4 -8 -7 -15 -9
-15 -2 0 -5 7 -9 15 -3 9 0 15 9 15 9 0 12 -6 9 -15z m1646 -399 c0 -3 -4 -8
-10 -11 -5 -3 -10 -1 -10 4 0 6 5 11 10 11 6 0 10 -2 10 -4z m137 -38 c-3 -8
-6 -5 -6 6 -1 11 2 17 5 13 3 -3 4 -12 1 -19z m-267 -33 c0 -8 -4 -15 -10 -15
-5 0 -10 7 -10 15 0 8 5 15 10 15 6 0 10 -7 10 -15z m-620 -325 c0 -5 -2 -10
-4 -10 -3 0 -8 5 -11 10 -3 6 -1 10 4 10 6 0 11 -4 11 -10z m200 -4 c0 -3 -4
-8 -10 -11 -5 -3 -10 -1 -10 4 0 6 5 11 10 11 6 0 10 -2 10 -4z m-470 -156
c19 -6 20 -8 6 -9 -12 -1 -16 -6 -12 -16 7 -20 -21 -20 -40 0 -29 28 -4 41 46
25z m670 -110 c-8 -5 -28 -10 -45 -10 -23 0 -27 3 -15 10 8 5 29 10 45 10 23
0 27 -3 15 -10z m203 -17 c-7 -2 -19 -2 -25 0 -7 3 -2 5 12 5 14 0 19 -2 13
-5z m82 -682 c3 -5 1 -12 -4 -15 -12 -8 -41 3 -41 15 0 12 37 12 45 0z"/>
<path d="M951 2118 c-1 -14 -6 -28 -13 -30 -8 -3 -8 -9 0 -24 11 -19 11 -19
12 1 0 17 2 17 10 5 8 -12 10 -11 9 5 -1 11 -5 31 -9 45 l-8 25 -1 -27z"/>
<path d="M1020 2110 c0 -6 -4 -9 -9 -6 -5 4 -7 -3 -4 -14 8 -31 20 -33 26 -5
2 14 0 28 -4 31 -5 3 -9 0 -9 -6z"/>
<path d="M880 2061 c0 -6 4 -11 9 -11 5 0 12 -8 15 -17 3 -11 4 -8 3 6 -2 24
-27 44 -27 22z"/>
<path d="M829 2046 c10 -11 8 -16 -8 -21 -21 -6 -29 -25 -11 -25 6 0 10 -8 10
-19 0 -11 9 -21 21 -24 22 -6 22 1 3 47 -5 12 -4 17 3 13 6 -4 8 3 5 18 -2 14
-11 25 -19 25 -12 0 -13 -3 -4 -14z"/>
<path d="M702 2012 c-7 -12 -17 -20 -21 -17 -10 5 -21 -28 -21 -62 0 -28 -11
-29 -34 -4 -13 15 -14 20 -4 24 7 3 1 6 -14 6 -16 1 -32 9 -38 21 -6 11 -17
20 -25 20 -19 0 -19 -6 3 -29 76 -81 87 -102 34 -65 -18 12 -22 12 -22 2 0 -8
6 -20 13 -28 9 -11 8 -11 -7 0 -15 12 -20 12 -23 3 -6 -16 -37 -17 -64 -3 -23
13 -25 3 -3 -21 9 -10 22 -15 30 -12 10 3 14 -3 14 -20 0 -16 11 -35 31 -51
26 -22 28 -26 11 -26 -11 0 -22 5 -24 11 -2 7 -13 3 -27 -8 -25 -20 -22 -43 5
-43 9 0 12 -5 8 -12 -4 -7 -3 -8 4 -4 20 12 51 -12 45 -34 -3 -11 0 -20 6 -20
6 0 11 -7 11 -15 0 -8 -4 -15 -8 -15 -5 0 -7 -16 -6 -36 9 -105 113 -168 282
-169 45 0 82 -3 82 -7 0 -16 52 -7 80 13 28 21 29 24 29 117 0 107 -14 153
-68 215 -34 38 -134 92 -156 83 -14 -5 -45 23 -45 42 0 6 -8 13 -19 17 -10 3
-27 15 -37 27 l-19 22 32 -22 c42 -30 52 -28 22 4 -19 21 -20 25 -5 17 15 -8
23 -7 35 4 13 14 12 18 -13 39 -15 13 -33 24 -41 24 -7 0 -15 8 -17 18 -3 15
-6 14 -16 -6z m23 -42 c10 -11 14 -20 9 -20 -12 1 -44 25 -44 34 0 12 17 6 35
-14z m46 -117 c19 -19 2 -43 -31 -43 -24 0 -30 4 -30 21 0 17 -3 19 -14 10
-15 -13 -32 1 -22 18 8 12 84 7 97 -6z m-210 -27 c5 3 9 0 9 -5 0 -6 -7 -11
-15 -11 -8 0 -15 8 -14 18 0 10 3 12 6 4 2 -6 9 -10 14 -6z m329 -216 c0 -5
-4 -10 -10 -10 -5 0 -10 5 -10 10 0 6 5 10 10 10 6 0 10 -4 10 -10z m-120 -60
c0 -5 -7 -10 -16 -10 -8 0 -12 5 -9 10 3 6 10 10 16 10 5 0 9 -4 9 -10z"/>
<path d="M1760 1300 c0 -5 5 -10 11 -10 5 0 7 5 4 10 -3 6 -8 10 -11 10 -2 0
-4 -4 -4 -10z"/>
<path d="M2170 1002 c0 -5 3 -12 8 -16 4 -4 8 -17 9 -29 6 -73 17 -114 39
-140 13 -16 24 -39 24 -52 0 -13 10 -29 25 -39 28 -18 50 -13 41 11 -3 8 -2
22 4 32 6 12 5 42 -2 85 -11 66 -12 67 -71 111 -58 44 -77 53 -77 37z"/>
<path d="M1849 894 c-17 -9 -19 -13 -7 -14 9 0 23 -3 31 -6 8 -3 17 1 20 10 8
21 -15 26 -44 10z"/>
<path d="M1955 890 c3 -5 15 -10 26 -10 11 0 17 5 14 10 -3 6 -15 10 -26 10
-11 0 -17 -4 -14 -10z"/>
<path d="M2090 850 c0 -5 5 -10 10 -10 6 0 10 5 10 10 0 6 -4 10 -10 10 -5 0
-10 -4 -10 -10z"/>
<path d="M1680 840 c0 -5 5 -10 10 -10 6 0 10 5 10 10 0 6 -4 10 -10 10 -5 0
-10 -4 -10 -10z"/>
</g>
</svg>
